<?xml version="1.0" encoding="utf-8"?>
<!-- Generator: Adobe Illustrator 16.0.0, SVG Export Plug-In . SVG Version: 6.00 Build 0)  -->
<!DOCTYPE svg PUBLIC "-//W3C//DTD SVG 1.0//EN" "http://www.w3.org/TR/2001/REC-SVG-20010904/DTD/svg10.dtd">
<svg version="1.0" id="Layer_1" xmlns="http://www.w3.org/2000/svg" xmlns:xlink="http://www.w3.org/1999/xlink" x="0px" y="0px"
	 width="800px" height="800px" viewBox="0 0 800 800" enable-background="new 0 0 800 800" xml:space="preserve">
<g>
	<g id="g3">
		<g id="g5">
			<path id="path7" fill="#4B7AB7" d="M41.424,467.253c15.652,26.957,39.425,47.826,68.41,59.13
				c-18.551-11.304-35.944-24.637-51.597-40.869C52.148,480.007,46.931,473.916,41.424,467.253z"/>
			<path id="path9" fill="#4B7AB7" d="M26.93,429.858c1.448,5.797,3.19,11.304,4.93,16.521c8.984,12.754,18.55,24.352,29.854,35.651
				c21.451,20.874,44.931,37.976,70.15,51.022c5.798,1.161,11.887,2.029,17.394,2.608c-30.438-13.626-58.844-32.757-83.484-57.394
				C50.411,463.481,37.946,446.959,26.93,429.858z"/>
			<path id="path11" fill="#4B7AB7" d="M23.451,402.897c0,4.353,0.579,8.695,0.871,12.753c11.885,21.164,26.957,41.168,44.93,59.14
				c27.828,27.826,60.006,48.116,94.501,61.163c4.348,0,8.697-0.291,13.043-0.87c-37.973-12.463-73.627-33.916-104.063-64.352
				C52.148,450.438,36.207,427.245,23.451,402.897z"/>
			<path id="path13" fill="#4B7AB7" d="M24.902,381.448c-0.58,3.479-0.872,6.956-0.872,10.435
				c12.177,27.246,29.857,52.753,52.468,75.37c32.468,32.174,70.73,53.913,111.603,65.801c3.48-0.579,6.958-1.452,10.437-2.613
				c-43.192-10.434-84.354-33.043-118.561-66.959C55.629,439.133,37.365,410.728,24.902,381.448z"/>
			<path id="path15" fill="#4B7AB7" d="M28.669,362.315c-0.87,2.898-1.739,6.087-2.029,8.985
				c12.173,32.177,31.308,62.615,57.396,88.702c35.363,35.077,78.267,57.685,124.066,67.255c2.609-0.875,5.507-2.034,8.695-3.479
				c-47.538-8.7-92.76-31.309-129.285-67.255C59.977,428.698,40.555,397.101,28.669,362.315z"/>
			<path id="path17" fill="#4B7AB7" d="M34.757,346.081c-1.158,2.611-2.028,5.221-3.478,7.829
				c11.304,36.523,31.016,69.861,59.717,98.557c37.97,37.976,84.931,60.004,133.63,67.54c2.608-1.444,4.638-3.185,7.246-4.344
				c-49.856-6.092-98.559-28.414-137.11-66.675C65.194,419.129,45.191,384.057,34.757,346.081z"/>
			<path id="path19" fill="#4B7AB7" d="M81.718,418.264c-7.825-1.739-13.915-8.7-13.915-17.394c0-0.871,0-1.741,0-2.608
				c-12.174-20.871-20.872-43.484-26.089-66.383c-1.159,2.029-2.609,4.348-3.479,6.957c9.565,39.134,29.567,75.945,60.004,106.38
				c39.423,39.135,89.282,61.168,140.3,66.096c2.029-1.74,4.348-3.189,6.377-4.928c-52.178-3.479-102.906-25.218-142.619-64.642
				C94.759,434.206,87.805,426.38,81.718,418.264z"/>
			<path id="path21" fill="#4B7AB7" d="M73.89,387.825c-11.597-21.741-20.002-44.642-23.77-68.702
				c-1.45,2.32-2.609,4.059-4.348,6.089c4.348,23.479,12.465,46.087,24.639,66.961C71.283,390.434,72.73,389.272,73.89,387.825z"/>
			<path id="path23" fill="#4B7AB7" d="M93.602,416.524c-1.451,0.865-3.479,1.739-5.219,1.739
				c5.219,6.957,11.306,13.334,17.396,19.995c40.581,40.01,92.179,61.168,144.937,63.487c1.737-1.738,3.477-3.479,5.505-5.217
				c-53.334-0.87-106.092-21.739-146.386-62.323C104.036,428.698,98.819,422.607,93.602,416.524z"/>
			<path id="path25" fill="#4B7AB7" d="M235.351,489.862c8.408,0.869,17.102,1.448,25.798,1.448c1.161-1.448,2.608-3.188,3.77-4.347
				c-7.826,2.024-16.524,2.898-25.221,2.898C238.541,489.862,236.8,489.862,235.351,489.862z"/>
			<path id="path27" fill="#4B7AB7" d="M117.082,426.959c-5.508-5.796-11.304-11.888-16.233-17.975
				c-0.868,1.743-1.739,3.188-2.899,4.348c4.64,6.092,9.568,11.889,15.364,17.396c28.119,27.826,62.033,46.087,98.268,54.786
				c-11.015-3.482-20.58-8.119-29.277-14.782C158.533,460.873,136.215,446.09,117.082,426.959z"/>
			<path id="path29" fill="#4B7AB7" d="M84.036,384.057c-13.625-23.48-21.741-49.569-24.931-75.658
				c-1.737,1.739-2.897,3.479-4.638,5.218c3.479,25.22,11.596,48.989,23.77,71.601C79.977,384.347,81.718,384.057,84.036,384.057z"
				/>
			<path id="path31" fill="#4B7AB7" d="M166.651,455.655c-1.739-2.319-3.48-4.349-5.22-6.957
				c-13.043-7.826-25.509-17.971-36.813-29.274c-34.204-33.341-52.757-76.24-55.946-120.593c-1.739,1.742-3.478,2.9-5.217,4.638
				c3.188,28.41,11.886,55.656,26.668,80.878c7.249,2.316,13.046,8.696,13.046,16.523c0,0.868,0,1.737,0,2.607
				c5.218,6.956,11.015,13.333,17.392,20.004c14.785,14.777,31.307,26.956,49.281,35.941c0-0.289,0-0.289,0-0.289
				C168.971,458.264,168.101,456.814,166.651,455.655z"/>
			<path id="path33" fill="#4B7AB7" d="M131.574,412.173c-33.627-33.333-51.598-76.813-52.757-121.165
				c-1.739,1.159-3.479,2.606-5.218,3.768c2.029,44.35,20.292,87.832,54.496,121.17c8.698,8.695,18.264,16.518,28.119,23.188
				c-1.16-2.608-2.609-5.797-3.769-9.274C145.488,424.641,138.531,418.55,131.574,412.173z"/>
			<path id="path35" fill="#4B7AB7" d="M203.755,445.51c9.854,7.826,22.9,13.044,36.813,13.044c7.536,0,14.493-1.155,20.58-3.479
				C241.438,455.075,222.308,452.177,203.755,445.51z"/>
			<path id="path37" fill="#4B7AB7" d="M138.823,404.637c-33.627-32.756-50.148-76.815-50.148-120.588
				c-1.739,0.869-3.481,2.029-5.218,2.898c0.87,44.352,17.971,88.411,51.886,121.747c4.93,4.638,9.567,8.99,14.787,13.334
				c-0.872-2.899-1.162-5.508-1.741-8.116C145.488,410.728,142.012,408.115,138.823,404.637z"/>
			<path id="path39" fill="#4B7AB7" d="M147.517,399.129c-0.288-0.29-0.867-0.867-1.157-0.867
				c-33.046-33.048-48.989-76.818-47.25-120.3c-1.739,0.869-3.479,2.026-5.218,2.898c-0.869,43.48,15.362,87.832,48.989,120.298
				c1.16,1.739,2.899,3.479,4.636,5.218C147.517,403.768,147.517,401.158,147.517,399.129z"/>
			<path id="path41" fill="#4B7AB7" d="M190.132,428.698c1.449,2.899,2.608,5.508,4.346,7.826
				c24.931,10.725,51.888,14.782,77.977,13.044c2.9-1.739,5.509-4.059,8.118-6.088C250.136,447.249,218.539,442.611,190.132,428.698
				z"/>
			<path id="path43" fill="#4B7AB7" d="M186.651,415.071c0.581,2.613,0.87,4.932,1.449,6.961
				c30.438,15.651,65.224,20.869,98.269,15.361c0.29-0.579,0.29-0.579,0.87-0.869c1.159-1.739,2.608-3.479,3.479-5.797
				C255.933,438.259,218.539,433.042,186.651,415.071z"/>
			<path id="path45" fill="#4B7AB7" d="M148.968,385.796c-28.697-31.886-42.03-72.76-38.842-112.764
				c-1.742,0.869-4.061,1.739-5.798,2.611c-2.031,41.738,12.464,84.351,43.769,117.108c0-0.869,0-1.738,0.292-2.608
				C148.389,388.692,148.968,386.956,148.968,385.796z"/>
			<path id="path47" fill="#4B7AB7" d="M121.14,269.557c-2.318,0.579-4.058,0.867-5.797,1.739
				c-3.478,38.262,8.405,77.396,34.787,108.413c0.867-1.739,1.447-4.058,2.316-6.087
				C127.517,344.053,117.082,306.078,121.14,269.557z"/>
			<path id="path49" fill="#4B7AB7" d="M197.957,409.563c-3.768-2.313-8.117-4.348-12.175-6.956c0,2.029,0,4.348,0,6.377
				c33.047,19.135,71.31,24.932,107.544,16.236c0.869-1.739,1.159-3.483,1.738-5.218c0-0.579,0-0.579,0-0.579
				c-28.407,7.535-58.846,5.797-86.092-5.218h-11.017L197.957,409.563L197.957,409.563z"/>
			<path id="path51" fill="#4B7AB7" d="M185.784,397.101c4.056,2.608,8.405,4.638,12.173,6.671v-5.51
				c-3.768-2.031-7.825-4.64-11.594-7.248C185.784,393.043,185.784,395.361,185.784,397.101z"/>
			<path id="path53" fill="#4B7AB7" d="M224.916,414.206c23.19,6.083,47.828,6.083,71.019-0.294c0-1.739,0-3.479,0.29-5.797
				c-0.578,0.579-1.737,0.579-2.608,0.869c0,1.743-0.29,3.482-0.29,5.222H224.916L224.916,414.206z"/>
			<path id="path55" fill="#4B7AB7" d="M131.574,266.945c-1.739,0-3.479,0.579-5.217,0.869
				c-4.348,35.367,4.638,71.309,27.828,100.588c0.869-1.739,1.741-4.058,2.608-5.797
				C135.343,334.777,127.227,299.991,131.574,266.945z"/>
			<path id="path57" fill="#4B7AB7" d="M162.884,353.038c-18.843-26.089-25.222-57.683-20.585-88.122
				c-1.736,0.29-3.476,0.29-5.505,0.869c-4.927,31.599,2.899,65.224,22.608,92.181l0,0
				C160.563,356.519,161.432,354.777,162.884,353.038z"/>
			<path id="path59" fill="#4B7AB7" d="M296.225,399.999c0-0.29,0-1.16,0-2.029c-1.158,0.292-2.029,0.869-3.479,1.159
				c0,1.159,0.58,2.899,0.58,4.639c0.869-0.29,2.32-0.29,2.898-0.87C296.225,401.738,296.225,400.87,296.225,399.999z"/>
			<path id="path61" fill="#4B7AB7" d="M187.232,385.217c3.477,2.608,7.245,5.217,10.725,7.535v-5.796h1.45
				c-4.059-2.029-7.537-4.349-11.015-6.957C188.101,381.735,187.521,383.475,187.232,385.217z"/>
			<path id="path63" fill="#4B7AB7" d="M296.225,392.752c0-1.738-0.29-3.478-0.29-5.217c-1.739,0.29-3.188,0.869-4.928,1.159
				c0.58,1.739,0.872,3.479,0.872,5.218C293.326,393.622,295.066,393.043,296.225,392.752z"/>
			<path id="path65" fill="#4B7AB7" d="M153.318,264.047c-1.741,0-4.061,0.29-5.799,0.29c-5.218,29.277,0.869,59.716,18.262,84.934
				c1.447-1.737,2.319-3.189,3.479-4.346C153.318,320.862,148.097,291.295,153.318,264.047z"/>
			<path id="path67" fill="#4B7AB7" d="M223.755,386.956c-11.015-3.769-21.45-9.568-31.015-16.814
				c-0.871,1.159-1.739,2.898-2.608,4.64c6.087,4.926,12.754,8.693,19.71,12.175H223.755z"/>
			<path id="path69" fill="#4B7AB7" d="M163.75,264.047c-1.447,0-2.608,0-3.476,0c-0.872,0-1.451,0-1.741,0
				c-5.797,26.089-0.579,53.917,14.785,77.397c1.159-1.45,2.608-2.608,3.768-3.479C162.884,315.647,158.533,288.687,163.75,264.047z
				"/>
			<path id="path71" fill="#4B7AB7" d="M295.066,382.315c0-1.737-0.579-4.056-0.579-5.797c-2.031,0.872-3.769,1.451-6.089,2.321
				c0.869,1.738,1.449,3.476,1.739,5.217C291.879,383.188,293.616,382.607,295.066,382.315z"/>
			<path id="path73" fill="#4B7AB7" d="M253.324,386.956c0-1.16,0-2.901,0-4.351c-19.133-1.16-37.974-8.118-53.917-20.292
				c-0.58,0.29-0.87,0.87-1.45,1.161c-0.869,0.868-1.738,1.739-2.608,2.317c14.785,11.596,31.307,18.555,48.697,21.164H253.324
				L253.324,386.956z"/>
			<path id="path75" fill="#4B7AB7" d="M174.188,264.337c-1.739,0-3.479,0-5.217-0.29c-5.218,23.771-1.45,49.569,12.465,70.73
				c1.447-0.869,2.609-1.739,4.349-2.608C172.738,311.877,168.971,287.527,174.188,264.337z"/>
			<path id="path77" fill="#4B7AB7" d="M293.326,371.881c0-1.739-0.58-3.479-0.87-5.218c-2.608,0.869-4.927,1.739-7.534,2.029
				c0.868,1.739,1.447,3.479,2.317,5.218C289.266,373.04,291.007,372.75,293.326,371.881z"/>
			<path id="path79" fill="#4B7AB7" d="M249.844,371.881c-14.493-1.449-27.826-6.667-40.005-15.362
				c-2.316,0.867-4.056,1.739-5.796,2.606c14.494,11.017,31.018,17.104,47.832,18.263
				C251.585,375.651,250.715,373.619,249.844,371.881z"/>
			<path id="path81" fill="#4B7AB7" d="M290.719,361.446c-0.581-1.449-0.871-3.188-1.453-4.928c-2.896,0.87-6.085,2.318-8.985,3.188
				c0.872,1.159,1.741,2.898,2.608,4.638C285.497,363.475,288.108,362.605,290.719,361.446z"/>
			<path id="path83" fill="#4B7AB7" d="M236.8,358.837c-2.318-0.869-4.928-1.739-6.956-2.61c-4.35-1.447-9.278-1.447-13.623-0.867
				c9.274,5.507,19.709,8.985,29.564,10.727C243.177,363.185,240.278,360.576,236.8,358.837z"/>
			<path id="path85" fill="#4B7AB7" d="M184.622,266.078c-1.739-0.293-3.478-0.872-5.217-0.872
				c-5.218,21.741-1.739,45.222,11.304,64.932c1.16-0.868,2.9-1.737,4.64-2.316C183.173,309.558,179.405,286.947,184.622,266.078z"
				/>
			<path id="path87" fill="#4B7AB7" d="M287.529,351.881c-0.87-1.741-1.16-3.48-2.029-5.219c-3.479,1.738-7.537,2.897-11.305,3.478
				c1.159,1.741,2.029,3.479,3.476,4.638C281.152,353.91,284.051,353.038,287.529,351.881z"/>
			<path id="path89" fill="#4B7AB7" d="M194.478,268.395c-1.737-0.58-3.477-0.87-5.218-1.449
				c-4.636,20.002-1.159,41.743,11.307,59.716c1.738-0.869,4.059-0.869,5.799-1.449C193.609,308.688,189.84,287.527,194.478,268.395
				z"/>
			<path id="path91" fill="#4B7AB7" d="M219.408,324.053c-14.494-14.495-19.134-34.495-14.783-52.757
				c-1.739-0.293-3.479-1.162-5.218-1.742c-4.349,18.843,0,39.135,13.045,54.787C214.479,324.341,216.798,324.053,219.408,324.053z"
				/>
			<path id="path93" fill="#4B7AB7" d="M270.715,345.792L270.715,345.792c4.351-0.58,8.698-1.739,12.466-3.479
				c-0.292-1.738-1.159-3.478-2.028-4.928c-4.928,1.739-10.147,3.189-15.363,3.479C267.526,342.604,269.266,344.053,270.715,345.792
				z"/>
			<path id="path95" fill="#4B7AB7" d="M227.234,317.384c-11.884-11.306-15.653-27.248-12.756-42.03
				c-1.738-0.87-3.478-1.742-5.214-2.321c-3.771,16.525,0.866,35.366,13.91,48.411c1.451,0.87,2.32,2.029,3.48,2.897
				c5.217,0.581,10.435,1.741,15.654,3.19C236.8,325.212,231.582,321.732,227.234,317.384z"/>
			<path id="path97" fill="#4B7AB7" d="M278.543,333.038c-0.872-1.739-1.738-3.479-2.611-4.638
				c-9.564,3.479-19.709,3.479-29.276,0.869c4.928,1.739,9.277,4.349,13.625,7.247C266.367,336.517,272.744,335.357,278.543,333.038
				z"/>
			<path id="path99" fill="#4B7AB7" d="M273.323,324.053c-1.447-1.739-2.316-3.188-3.476-4.928
				c-12.176,3.479-25.802,0.58-35.366-8.985c-8.113-8.408-11.595-19.712-10.435-30.438c-1.739-0.87-3.479-1.739-5.218-2.318
				c-2.029,12.753,1.739,26.668,11.884,36.525C242.018,325.212,258.541,328.69,273.323,324.053z"/>
			<path id="path101" fill="#4B7AB7" d="M266.367,314.775c-1.449-1.159-2.608-2.898-4.058-4.638
				c-7.247,0.87-14.782-1.739-20.292-7.538c-4.928-4.636-7.536-10.725-7.826-16.812c-1.739-0.87-3.479-2.318-5.215-3.188
				c-0.58,8.408,2.608,17.392,8.985,24.061C245.785,314.485,256.22,317.095,266.367,314.775z"/>
			<path id="path103" fill="#4B7AB7" d="M257.962,305.21c-5.508-5.509-11.595-10.727-18.264-15.652
				c0.872,3.477,2.611,6.955,5.8,9.565C248.974,302.6,253.324,304.921,257.962,305.21z"/>
		</g>
		<g id="g105">
			<path id="path107" fill="#0E2180" d="M524.066,428.698c2.318,12.174,6.955,21.159,18.264,24.638
				c13.625,4.063,30.436,3.188,38.842-7.826c2.898-3.768,3.479-9.564,2.033-14.203c-2.033-7.535-8.697-9.274-21.744-11.883
				c-11.305-2.609-39.135-5.512-53.912-16.816c-11.889-8.985-17.977-26.377-11.889-45.507c7.246-20.584,28.119-29.569,43.771-31.889
				c28.986-4.348,52.469,6.667,62.613,17.102c7.826,8.118,13.043,21.163,12.463,33.917H582.33
				c-0.285-4.058-0.865-7.825-2.604-11.304c-3.773-8.698-13.049-13.915-22.902-13.915c-11.301-0.87-23.189,2.029-27.826,11.596
				c-1.74,3.479-1.74,9.565,1.158,13.044c6.957,7.826,20.58,8.405,32.178,10.435c19.996,3.48,41.74,6.957,51.309,23.482
				c11.016,19.13,4.924,40.873-2.033,49.569c-4.922,6.083-10.434,11.594-17.971,15.938c-12.463,6.96-33.916,9.569-54.787,6.091
				c-19.129-2.897-32.178-12.468-39.42-24.348c-5.795-8.989-9.279-16.815-9.279-28.12H524.066L524.066,428.698z"/>
			<path id="path109" fill="#0E2180" d="M378.26,386.956h54.498c0.865-12.467-8.695-26.382-21.453-30.438
				c-11.302-3.48-23.479-1.161-33.623,6.956c-8.987,8.406-12.176,25.798-12.176,36.524c0.579,20.29,4.348,34.786,16.233,43.481
				c7.824,5.508,25.218,13.044,40.87,1.735c6.955-5.218,10.148-12.174,11.309-17.392h38.84
				c-0.865,12.174-12.754,31.599-24.348,40.294c-20.869,15.367-48.41,18.266-69.858,10.146
				c-46.381-17.391-53.92-61.743-50.439-88.12c1.737-11.017,5.798-22.32,11.303-32.178c11.018-17.391,26.67-29.565,48.409-33.046
				c23.48-3.477,46.959,3.769,62.324,20.872c8.695,9.857,16.813,26.379,20.004,40.002c1.74,8.985,3.475,18.553,2.605,28.412H378.26
				V386.956z"/>
			<g id="g111">
				<path id="path113" fill="#0E2180" d="M704.656,453.336v27.83c12.18-2.608,21.744-8.115,31.02-15.656
					c0.293,2.324,2.613,10.438,4.352,12.759h36.521c-5.797-11.309-4.928-27.831-4.928-37.106v-46.671
					c-0.289-12.176-0.289-24.35-2.896-35.654c-2.609-11.304-12.754-30.146-44.932-33.915c-6.088-0.581-12.465-0.581-19.137-0.581
					v27.83c8.701-0.29,17.396,1.739,23.482,7.536c4.059,3.768,5.217,8.985,4.059,14.782c-2.318,8.988-12.174,12.176-27.541,14.205
					v23.772c4.059-0.294,8.41-1.159,13.049-2.612c9.564-2.025,11.885-3.765,16.521-7.247c0,3.479,0.58,28.12-1.738,33.048
					C728.719,446.09,717.705,452.177,704.656,453.336z"/>
				<path id="path115" fill="#0E2180" d="M704.656,352.168v-27.827c-10.719,0.579-22.314,2.318-31.303,5.797
					c-19.131,7.828-28.701,26.381-28.701,46.091h34.789c-0.871-10.145,6.375-19.131,13.621-21.739
					C695.961,353.038,700.313,352.168,704.656,352.168z"/>
				<path id="path117" fill="#0E2180" d="M704.656,412.467v-23.772c-5.211,0.87-11.299,1.449-17.971,2.319
					c-18.26,2.029-44.352,11.015-50.434,37.685c-2.033,10.435-0.295,29.565,15.65,42.033c11.016,8.402,26.088,12.174,37.977,11.88
					c5.217,0,10.434-0.58,14.777-1.445v-27.83c-2.604,0.58-5.502,0.87-8.695,0.58c-8.695,0-16.232-4.348-19.131-11.015
					c-3.477-6.377-1.447-13.043,0.871-16.816C682.922,416.811,691.904,415.071,704.656,412.467z"/>
			</g>
		</g>
	</g>
	<path id="path1927" fill="#0E2180" d="M705.701,327.168c0.09,0.476,0.141,0.988,0.211,1.479c0.137,0.813,0.172,1.637,0.199,2.459
		c0.025,0.851,0.018,1.7,0.018,2.551c0,0.718,0.008,1.438,0.012,2.158c0.006,0.537,0,1.073,0,1.609c0,0.557,0,1.112-0.004,1.666
		c-0.018,0.83-0.008,1.659-0.006,2.487c0.063,0.55-0.029,1.09-0.072,1.631c-0.242,1.438-3.535,3.193-2.916,1.029
		c0.398-1.367,0.434-2.783,0.467-4.194c0-0.805-0.018-1.611-0.033-2.416c-0.025-0.602,0.086-1.193,0.172-1.786
		c0.1-0.591,0.252-1.173,0.398-1.754c0.135-0.472,0.26-0.945,0.398-1.418c0.125-0.451,0.135-0.919,0.164-1.384
		c0.025-0.443-0.246-0.688-0.457-1.029c-0.27-0.333-0.529-0.666-0.797-0.995c-0.191-0.294-0.385-0.586-0.58-0.876
		c-0.066-0.359-0.295-0.625-0.441-0.941c-0.082-0.121-0.174-0.233-0.26-0.351l2.959-1.763c0.092,0.135,0.182,0.267,0.271,0.4
		c0.17,0.31,0.379,0.586,0.443,0.941c0.184,0.274,0.375,0.549,0.557,0.83c0.256,0.329,0.51,0.662,0.771,0.988
		c0.281,0.403,0.574,0.731,0.586,1.253c-0.023,0.484-0.023,0.973-0.137,1.451c-0.139,0.476-0.25,0.956-0.398,1.433
		c-0.156,0.57-0.32,1.139-0.414,1.726c-0.088,0.571-0.217,1.144-0.203,1.726c0.004,0.818,0.008,1.636-0.014,2.453
		c-0.053,1.424-0.092,2.855-0.424,4.248c-0.223,1.389-3.574,3.864-3.193,1.928c0.068-0.53,0.193-1.045,0.129-1.59
		c0.01-0.826,0.014-1.652-0.008-2.479c0-0.555,0-1.11,0-1.664c0-0.538,0-1.075,0-1.613c0.008-0.723,0.018-1.447,0.018-2.17
		c0-0.848,0-1.695-0.018-2.541c-0.027-0.81-0.053-1.618-0.182-2.417c-0.086-0.499-0.109-1.029-0.303-1.496L705.701,327.168z"/>
	<path id="path1929" fill="#0E2180" d="M705.236,332.482c-0.035,0.612-0.035,1.225-0.043,1.836c-0.01,1.1,0,2.198,0,3.295
		c0.008,1.079,0.246,2.126,0.51,3.164c0.252,0.655,0.426,1.329,0.594,2.008c0.082,0.586,0.072,1.177,0.082,1.766
		c-0.051,0.469,0.131,0.887,0.246,1.328c0.123,0.393,0.334,0.746,0.523,1.107c0.199,0.311,0.32,0.661,0.477,0.994
		c0.078,0.377,0,0.76-0.043,1.138c0,0.144-0.025,0.281-0.043,0.422l-3.082,1.495c0.018-0.128,0.105-0.247,0.063-0.388
		c0.033-0.337,0.061-0.676,0.1-1.016c-0.145-0.31-0.256-0.639-0.441-0.929c-0.205-0.389-0.422-0.77-0.555-1.189
		c-0.152-0.463-0.32-0.918-0.285-1.415c-0.004-0.57,0.008-1.142-0.057-1.711c-0.143-0.679-0.293-1.352-0.537-2.005
		c-0.268-1.064-0.514-2.138-0.545-3.24c0-1.099,0.008-2.195-0.004-3.295c-0.004-0.597-0.004-1.195-0.037-1.793L705.236,332.482z"/>
	<path id="path1931" fill="#0E2180" d="M703.541,350.41c-0.078-0.405-0.113-0.815-0.164-1.227c-0.031-0.333-0.031-0.668-0.043-1.001
		l3.045-1.558c0.008,0.326,0.004,0.655,0.031,0.981c0.047,0.413,0.047,0.844,0.215,1.231L703.541,350.41z"/>
	<path id="path1933" fill="#0E2180" d="M705.93,390.038c-0.018,0.393-0.018,0.787-0.021,1.184c-0.006,0.572,0.004,1.146,0.004,1.719
		c-0.035,0.486,0.029,0.958,0.096,1.438c0.094,0.636,0.104,1.281,0.121,1.923c0.008,0.714,0.008,1.428,0.008,2.145
		c0.004,0.618,0,1.239,0,1.859c0,0.602,0,1.205,0.004,1.807c-0.012,0.682-0.004,1.365-0.004,2.053c0.01,0.51,0.01,1.021,0.01,1.536
		c0,0.458,0,0.921,0,1.385c-0.018,0.44,0.008,0.89,0.018,1.331c-0.18,0.347,0.189,0.563,0.25,0.736
		c0.398,0.12,0.57,0.454,0.83,0.727c0.09,0.13,0.113,0.285,0.164,0.425l-3.002,1.644c0,0-0.086-0.338-0.121-0.338
		c-0.242-0.199-0.414-0.498-0.752-0.584c-0.217-0.351-0.51-0.506-0.398-1.008c-0.018-0.459-0.063-0.922-0.039-1.38
		c0-0.463,0-0.927,0.004-1.389c0-0.511,0-1.025,0-1.541c0.008-0.684,0.014-1.367,0-2.05c0-0.602,0.006-1.203,0.006-1.809
		c0-0.621-0.006-1.241,0.002-1.863c0-0.711,0.006-1.425-0.008-2.137c-0.018-0.627-0.027-1.257-0.111-1.877
		c-0.08-0.494-0.164-0.978-0.121-1.482c0.004-0.573,0.008-1.148,0.004-1.724c-0.004-0.388-0.004-0.772-0.021-1.159L705.93,390.038z"
		/>
	<path id="path1935" fill="#0E2180" d="M706.164,454.525c-0.018,0.347-0.018,0.701-0.018,1.047c0,0.477,0,0.952,0,1.428
		c0,0.52-0.006,1.038-0.01,1.558c0.061,1.073,0.291,2.129,0.459,3.188c0.129,0.87,0.189,1.752,0.229,2.635
		c0.014,0.691,0.008,1.384,0.006,2.076c0,0.796-0.006,1.584-0.01,2.375c-0.008,0.801,0,1.602,0.01,2.401
		c-0.035,0.61,0.033,1.212,0.094,1.813c0.088,0.506,0.105,1.016,0.135,1.521c-0.035,0.464,0.055,0.914,0.104,1.372
		c0.086,0.458,0.195,0.922,0.285,1.385c0.086,0.462,0.061,0.935,0.068,1.401c0.006,0.164-0.094,0.294-0.141,0.44l-3.123,1.402
		c0.064-0.108,0.164-0.198,0.193-0.329c0.008-0.433,0.064-0.878-0.021-1.315c-0.096-0.462-0.182-0.925-0.287-1.384
		c-0.076-0.468-0.154-0.93-0.119-1.41c-0.021-0.498-0.035-0.999-0.104-1.497c-0.078-0.614-0.158-1.229-0.117-1.852
		c0.008-0.809,0.021-1.614,0.012-2.418c-0.004-0.787-0.008-1.574-0.008-2.362c0-0.688,0.008-1.38,0-2.072
		c-0.021-0.874-0.047-1.752-0.164-2.621c-0.166-1.069-0.391-2.129-0.531-3.202c-0.006-0.52-0.016-1.038-0.006-1.553
		c0-0.476,0-0.952,0-1.428c-0.01-0.342,0-0.688-0.021-1.03L706.164,454.525z"/>
	<path id="path1937" fill="#0E2180" d="M706.396,454.063c-0.018,0.302-0.018,0.605-0.018,0.907c-0.01,0.516-0.004,1.026-0.004,1.541
		c-0.039,0.445,0.025,0.887,0.057,1.323l-3.029,1.614c-0.033-0.459-0.125-0.917-0.074-1.385c0-0.51,0.006-1.029-0.004-1.54
		c0-0.294,0-0.593-0.018-0.891L706.396,454.063z"/>
	<path id="path1939" fill="#0E2180" d="M706.855,454.063c-0.014,0.289-0.008,0.583-0.018,0.878c0,0.458,0,0.908,0,1.367
		l-3.047,1.548c0-0.45,0-0.903-0.004-1.357c-0.004-0.286-0.004-0.576-0.014-0.865L706.855,454.063z"/>
	<path id="path1941" fill="#0E2180" d="M702.191,457.087c-0.32-0.242,0.064-0.532,0.086-0.731c0.063-0.029,0.078-0.095,0.113-0.143
		l3.102-1.488c0,0-0.004,0.281-0.047,0.281c-0.096,0.087-0.262,0.242-0.305,0.272L702.191,457.087z"/>
	<path id="path1943" fill="#0E2180" d="M704.432,390.239c0.287,0.01,0.57,0.009,0.857,0.01c0.424-0.027,0.83,0.081,1.242,0.165
		c0.381,0.089,0.717,0.284,1.059,0.429c1.195,1.551-2.992,1.691-3.059,1.715c-0.178-0.511-0.578-0.768-0.93-1.105
		c-0.406-0.121-0.822,0.035-1.221,0.102c-0.439,0.208-0.865,0.108-1.322,0.101l2.795-1.988c0.418-0.037,0.842-0.016,1.246-0.184
		c0.484-0.046,0.932-0.144,1.379,0.107c0.389,0.37,0.752,0.717,0.99,1.223c-0.9,0.664-2.129,2.796-2.768,1.881
		c-0.32-0.107-0.641-0.241-0.979-0.313c-0.402-0.063-0.797-0.164-1.207-0.116c-0.293,0.005-0.592,0.002-0.887,0.011L704.432,390.239
		z"/>
	<path id="path1945" fill="#0E2180" d="M705.93,347.738c-0.029,0.164,0.234,0.19,0.342,0.283c0.279,0.219,0.428,0.554,0.617,0.845
		c0.223,0.291,0.342,0.638,0.504,0.962l-3.008,1.652c-0.143-0.289-0.248-0.607-0.455-0.869c-0.164-0.248-0.285-0.554-0.545-0.721
		c-0.189-0.182-0.535-0.253-0.535-0.582L705.93,347.738z"/>
</g>
</svg>
